<?xml version="1.0" encoding="UTF-8"?>
<svg xmlns="http://www.w3.org/2000/svg" style="stroke-dasharray:none; shape-rendering:auto; font-family:'Arial'; text-rendering:auto; fill-opacity:1; color-interpolation:auto; color-rendering:auto; font-size:12; fill:black; stroke:black; image-rendering:auto; stroke-miterlimit:10; stroke-linecap:square; stroke-linejoin:miter; font-style:normal; stroke-width:1; stroke-dashoffset:0; font-weight:normal; stroke-opacity:1;" contentScriptType="text/ecmascript" preserveAspectRatio="xMidYMid meet" zoomAndPan="magnify" version="1.0" contentStyleType="text/css" xml:xlink="http://www.w3.org/1999/xlink" width="841" height="441"><rect x="0" y="10" width="841" height="431" ry="0" rx="0" style="stroke:#000000; fill:#FFFFFF" /><rect x="30" y="296" width="811" height="145" ry="0" rx="0" style="stroke:#000000; fill:#ADC9AC" /><g componentSequence="30"><text x="-368" y="37" transform="rotate(270)" text-anchor="middle" style="font-weight:bold;font-size:10px;stroke:none; fill:#434343"><tspan dy="14" x="-368">Validação do Escopo</tspan></text></g><rect x="30" y="153" width="811" height="143" ry="0" rx="0" style="stroke:#000000; fill:#FF8080" /><g componentSequence="3"><text x="-224" y="37" transform="rotate(270)" text-anchor="middle" style="font-weight:bold;font-size:10px;stroke:none; fill:#434343"><tspan dy="14" x="-224">Suporte</tspan></text></g><rect x="30" y="10" width="811" height="143" ry="0" rx="0" style="stroke:#000000; fill:#FF8040" /><g componentSequence="2"><text x="-81" y="37" transform="rotate(270)" text-anchor="middle" style="font-weight:bold;font-size:10px;stroke:none; fill:#434343"><tspan dy="14" x="-81">Solicitante</tspan></text></g><g componentSequence="1"><text x="-225" y="7" transform="rotate(270)" text-anchor="middle" style="font-weight:bold;font-size:10px;stroke:none; fill:#434343"><tspan dy="14" x="-225">Portal Marketing</tspan></text></g><g sequence="8"><ellipse cx="142" cy="81" rx="17" ry="17" stroke-width="1" style="fill:url(#linearGradient66FF6696FF96B6FFB6_1675668434);" stroke="336633" /></g><g sequence="9"><rect x="90" y="187" width="106" height="70" ry="5" rx="5" style="fill:url(#linearGradientF8FBFEEDF5FCDEEDFAD4E7F8E2E5E9_1831291358);" stroke="191970" /></g><g componentSequence="9"><text x="143" y="202" text-anchor="middle" style="font-weight:bold;font-size:10px;stroke:none; fill:#333399"><tspan dy="14" x="143">Solucionar</tspan><tspan dy="14" x="143">Demanda</tspan></text></g><g sequence="33"><rect x="90" y="332" width="106" height="70" ry="5" rx="5" style="fill:url(#linearGradientF8FBFEEDF5FCDEEDFAD4E7F8E2E5E9_1763229858);" stroke="191970" /></g><g componentSequence="33"><text x="143" y="347" text-anchor="middle" style="font-weight:bold;font-size:10px;stroke:none; fill:#333399"><tspan dy="14" x="143">Validação</tspan><tspan dy="14" x="143">Técnica</tspan></text></g><g sequence="40"><rect x="644" y="195" width="106" height="56" ry="5" rx="5" style="fill:url(#linearGradientF8FBFEEDF5FCDEEDFAD4E7F8E2E5E9_739918821);" stroke="191970" /></g><g componentSequence="40"><text x="697" y="212" text-anchor="middle" style="font-weight:bold;font-size:10px;stroke:none; fill:#333399"><tspan dy="14" x="697">Finalização</tspan></text></g><g sequence="42"><ellipse cx="697" cy="369" rx="17" ry="17" stroke-width="3" style="fill:url(#linearGradientFF6666FF9696FFB6B6_1245889423);" stroke="993333" /></g><g sequence="44"><rect x="350" y="44" width="106" height="56" ry="5" rx="5" style="fill:url(#linearGradientF8FBFEEDF5FCDEEDFAD4E7F8E2E5E9_494668448);" stroke="191970" /></g><g componentSequence="44"><text x="403" y="61" text-anchor="middle" style="font-weight:bold;font-size:10px;stroke:none; fill:#333399"><tspan dy="14" x="403">Validar Solução</tspan></text></g><g sequence="49"><rect x="510" y="194" width="106" height="56" ry="5" rx="5" style="fill:url(#linearGradientF8FBFEEDF5FCDEEDFAD4E7F8E2E5E9_852415613);" stroke="191970" /></g><g componentSequence="49"><text x="563" y="211" text-anchor="middle" style="font-weight:bold;font-size:10px;stroke:none; fill:#333399"><tspan dy="14" x="563">Revisão</tspan></text></g><g sequence="52"><polygon points=" 533 50 563 20 593 50 563 80 533 50" style="fill:url(#linearGradientFAFBFCFFFFCC_1278590122);" stroke="000000" /></g><g componentSequence="52"><text x="563" y="90" text-anchor="middle" style="font-weight:bold;font-size:10px;stroke:none; fill:#333399"><tspan dy="14" x="563">Exclusiv</tspan><tspan dy="14" x="563">e</tspan></text></g><g sequence="57"><rect x="250" y="198" width="106" height="56" ry="5" rx="5" style="fill:url(#linearGradientF8FBFEEDF5FCDEEDFAD4E7F8E2E5E9_280444952);" stroke="191970" /></g><g componentSequence="57"><text x="303" y="215" text-anchor="middle" style="font-weight:bold;font-size:10px;stroke:none; fill:#333399"><tspan dy="14" x="303">Revisão</tspan></text></g><g componentSequence="31"><text x="152" y="143" style="font-size:10px;font-weight:none;stroke:none; fill:#333399" text-anchor="left" /></g><g componentSequence="43"><text x="707" y="301" style="font-size:10px;font-weight:none;stroke:none; fill:#333399" text-anchor="left" /></g><g componentSequence="45"><text x="411" y="336" style="font-size:10px;font-weight:none;stroke:none; fill:#333399" text-anchor="left" /></g><g componentSequence="48"><text x="153" y="294" style="font-size:10px;font-weight:none;stroke:none; fill:#333399" text-anchor="left" /></g><g componentSequence="53"><text x="504" y="71" style="font-size:10px;font-weight:none;stroke:none; fill:#333399" text-anchor="left" /></g><g componentSequence="54"><text x="573" y="158" style="font-size:10px;font-weight:none;stroke:none; fill:#333399" text-anchor="left" /></g><g componentSequence="55"><text x="707" y="81" style="font-size:10px;font-weight:none;stroke:none; fill:#333399" text-anchor="left" /></g><g componentSequence="56"><text x="412" y="215" style="font-size:10px;font-weight:none;stroke:none; fill:#333399" text-anchor="left" /></g><g componentSequence="58"><text x="312" y="363" style="font-size:10px;font-weight:none;stroke:none; fill:#333399" text-anchor="left" /></g><g componentSequence="59"><text x="312" y="363" style="font-size:10px;font-weight:none;stroke:none; fill:#333399" text-anchor="left" /></g><path style="fill:none; stroke:#F00000;stroke-width:1" d="M142.0 98.0 L142.0 186.0" /><polygon style="fill:#F00000; stroke:#F00000;" points=" 147 176 142 186 137 176 142 178" /><polygon style="fill:#F00000; stroke:#F00000;" points=" 137 108 142 98 147 108 142 106" /><path style="fill:none; stroke:#000000;stroke-width:1" d="M143.0 257.0 L143.0 331.0" /><polygon style="fill:#000000; stroke:#000000;" points=" 148 321 143 331 138 321 143 323" /><path style="fill:none; stroke:#000000;stroke-width:1" d="M196.0 367.0 L401.0 367.0 L402.0 100.0" /><polygon style="fill:#000000; stroke:#000000;" points=" 397 110 402 100 407 110 402 108" /><path style="fill:none; stroke:#000000;stroke-width:1" d="M196.0 366.0 L302.0 366.0 L302.0 254.0" /><polygon style="fill:#000000; stroke:#000000;" points=" 297 264 302 254 307 264 302 262" /><path style="fill:none; stroke:#000000;stroke-width:1" d="M302.0 254.0 L302.0 366.0 L196.0 366.0" /><polygon style="fill:#000000; stroke:#000000;" points=" 206 371 196 366 206 361 204 366" /><path style="fill:none; stroke:#000000;stroke-width:1" d="M697.0 251.0 L697.0 351.0" /><polygon style="fill:#000000; stroke:#000000;" points=" 702 341 697 351 692 341 697 343" /><path style="fill:none; stroke:#000000;stroke-width:1" d="M593.0 71.0 L697.0 71.0 L697.0 194.0" /><polygon style="fill:#000000; stroke:#000000;" points=" 702 184 697 194 692 184 697 186" /><path style="fill:none; stroke:#000000;stroke-width:1" d="M456.0 71.0 L532.0 71.0" /><polygon style="fill:#000000; stroke:#000000;" points=" 522 66 532 71 522 76 524 71" /><path style="fill:none; stroke:#000000;stroke-width:1" d="M509.0 222.0 L402.0 222.0 L402.0 100.0" /><polygon style="fill:#000000; stroke:#000000;" points=" 397 110 402 100 407 110 402 108" /><path style="fill:none; stroke:#000000;stroke-width:1" d="M563.0 122.0 L563.0 193.0" /><polygon style="fill:#000000; stroke:#000000;" points=" 568 183 563 193 558 183 563 185" /><defs><linearGradient xmlns:xlink="http://www.w3.org/1999/xlink" xlink:href="#linearGradient66FF6696FF96B6FFB6" id="linearGradient66FF6696FF96B6FFB6_1675668434" x1="0" y1="64.0" x2="0" y2="99.0" gradientUnits="userSpaceOnUse" xlink:type="simple" xlink:actuate="onLoad" xlink:show="other" /><linearGradient id="linearGradient66FF6696FF96B6FFB6"><stop style="stop-color:#66FF66;stop-opacity:1;" offset="0.0" id="stop66FF66" /><stop style="stop-color:#96FF96;stop-opacity:1;" offset="0.5" id="stop96FF96" /><stop style="stop-color:#B6FFB6;stop-opacity:1;" offset="1.0" id="stopB6FFB6" /></linearGradient><linearGradient xmlns:xlink="http://www.w3.org/1999/xlink" xlink:href="#linearGradientF8FBFEEDF5FCDEEDFAD4E7F8E2E5E9" id="linearGradientF8FBFEEDF5FCDEEDFAD4E7F8E2E5E9_1831291358" x1="0" y1="187.0" x2="0" y2="293.0" gradientUnits="userSpaceOnUse" xlink:type="simple" xlink:actuate="onLoad" xlink:show="other" /><linearGradient id="linearGradientF8FBFEEDF5FCDEEDFAD4E7F8E2E5E9"><stop style="stop-color:#F8FBFE;stop-opacity:1;" offset="0.0" id="stopF8FBFE" /><stop style="stop-color:#EDF5FC;stop-opacity:1;" offset="0.25" id="stopEDF5FC" /><stop style="stop-color:#DEEDFA;stop-opacity:1;" offset="0.5" id="stopDEEDFA" /><stop style="stop-color:#D4E7F8;stop-opacity:1;" offset="0.75" id="stopD4E7F8" /><stop style="stop-color:#E2E5E9;stop-opacity:1;" offset="1.0" id="stopE2E5E9" /></linearGradient><linearGradient xmlns:xlink="http://www.w3.org/1999/xlink" xlink:href="#linearGradientF8FBFEEDF5FCDEEDFAD4E7F8E2E5E9" id="linearGradientF8FBFEEDF5FCDEEDFAD4E7F8E2E5E9_1763229858" x1="0" y1="332.0" x2="0" y2="438.0" gradientUnits="userSpaceOnUse" xlink:type="simple" xlink:actuate="onLoad" xlink:show="other" /><linearGradient xmlns:xlink="http://www.w3.org/1999/xlink" xlink:href="#linearGradientF8FBFEEDF5FCDEEDFAD4E7F8E2E5E9" id="linearGradientF8FBFEEDF5FCDEEDFAD4E7F8E2E5E9_739918821" x1="0" y1="195.0" x2="0" y2="301.0" gradientUnits="userSpaceOnUse" xlink:type="simple" xlink:actuate="onLoad" xlink:show="other" /><linearGradient xmlns:xlink="http://www.w3.org/1999/xlink" xlink:href="#linearGradientFF6666FF9696FFB6B6" id="linearGradientFF6666FF9696FFB6B6_1245889423" x1="0" y1="352.0" x2="0" y2="387.0" gradientUnits="userSpaceOnUse" xlink:type="simple" xlink:actuate="onLoad" xlink:show="other" /><linearGradient id="linearGradientFF6666FF9696FFB6B6"><stop style="stop-color:#FF6666;stop-opacity:1;" offset="0.0" id="stopFF6666" /><stop style="stop-color:#FF9696;stop-opacity:1;" offset="0.5" id="stopFF9696" /><stop style="stop-color:#FFB6B6;stop-opacity:1;" offset="1.0" id="stopFFB6B6" /></linearGradient><linearGradient xmlns:xlink="http://www.w3.org/1999/xlink" xlink:href="#linearGradientF8FBFEEDF5FCDEEDFAD4E7F8E2E5E9" id="linearGradientF8FBFEEDF5FCDEEDFAD4E7F8E2E5E9_494668448" x1="0" y1="44.0" x2="0" y2="150.0" gradientUnits="userSpaceOnUse" xlink:type="simple" xlink:actuate="onLoad" xlink:show="other" /><linearGradient xmlns:xlink="http://www.w3.org/1999/xlink" xlink:href="#linearGradientF8FBFEEDF5FCDEEDFAD4E7F8E2E5E9" id="linearGradientF8FBFEEDF5FCDEEDFAD4E7F8E2E5E9_852415613" x1="0" y1="194.0" x2="0" y2="300.0" gradientUnits="userSpaceOnUse" xlink:type="simple" xlink:actuate="onLoad" xlink:show="other" /><linearGradient xmlns:xlink="http://www.w3.org/1999/xlink" xlink:href="#linearGradientFAFBFCFFFFCC" id="linearGradientFAFBFCFFFFCC_1278590122" x1="0" y1="20.0" x2="0" y2="80.0" gradientUnits="userSpaceOnUse" xlink:type="simple" xlink:actuate="onLoad" xlink:show="other" /><linearGradient id="linearGradientFAFBFCFFFFCC"><stop style="stop-color:#FAFBFC;stop-opacity:1;" offset="0.0" id="stopFAFBFC" /><stop style="stop-color:#FFFFCC;stop-opacity:1;" offset="1.0" id="stopFFFFCC" /></linearGradient><linearGradient xmlns:xlink="http://www.w3.org/1999/xlink" xlink:href="#linearGradientF8FBFEEDF5FCDEEDFAD4E7F8E2E5E9" id="linearGradientF8FBFEEDF5FCDEEDFAD4E7F8E2E5E9_280444952" x1="0" y1="198.0" x2="0" y2="304.0" gradientUnits="userSpaceOnUse" xlink:type="simple" xlink:actuate="onLoad" xlink:show="other" /></defs></svg>
